<?xml version="1.0" standalone="no"?>
<!DOCTYPE svg PUBLIC "-//W3C//DTD SVG 20010904//EN"
 "http://www.w3.org/TR/2001/REC-SVG-20010904/DTD/svg10.dtd">
<svg version="1.0" xmlns="http://www.w3.org/2000/svg"
 width="1198.000000pt" height="1247.000000pt" viewBox="0 0 1198.000000 1247.000000"
 preserveAspectRatio="xMidYMid meet">

<g transform="translate(0.000000,1247.000000) scale(0.100000,-0.100000)"
fill="#000000" stroke="none">
<path d="M3655 12324 c-509 -41 -949 -176 -1440 -443 -27 -14 -120 -17 -875
-21 l-845 -5 -41 -22 c-64 -34 -131 -116 -151 -182 -15 -52 -16 -446 -10
-5261 6 -4782 7 -5209 23 -5259 12 -43 29 -68 78 -117 98 -98 69 -94 738 -94
414 0 575 -3 591 -12 12 -6 51 -35 87 -63 392 -312 913 -543 1430 -633 243
-43 291 -47 575 -46 233 0 305 4 428 22 147 21 343 61 427 87 25 7 79 23 120
36 308 91 651 264 931 469 68 49 140 101 159 114 l35 24 2550 3 c2102 2 2559
4 2601 15 64 17 143 85 176 152 l23 47 5 2070 5 2070 56 85 c323 494 489 1052
489 1645 0 597 -156 1126 -487 1649 l-63 99 0 1434 c0 1382 -1 1435 -19 1483
-26 69 -71 121 -133 156 l-53 29 -2700 5 -2700 5 -175 91 c-425 220 -819 331
-1320 369 -219 17 -289 17 -515 -1z m620 -469 c431 -52 828 -188 1195 -410
676 -408 1181 -1099 1361 -1860 97 -413 104 -887 19 -1295 -150 -719 -546
-1341 -1135 -1787 -88 -67 -294 -203 -307 -203 -5 0 -57 24 -116 54 -347 174
-653 270 -1049 328 -201 30 -642 32 -833 5 -262 -38 -446 -81 -675 -160 -101
-34 -267 -103 -337 -138 -21 -10 -44 -19 -53 -19 -31 0 -249 157 -375 270 -41
37 -94 84 -118 105 -135 122 -363 409 -483 612 -230 384 -342 714 -411 1203
-20 142 -17 543 5 700 55 386 151 689 323 1019 384 737 1093 1298 1894 1501
201 51 296 66 595 94 75 7 380 -4 500 -19z m6479 -571 c8 -21 8 -1964 0 -1964
-4 0 -50 33 -103 73 -447 342 -909 533 -1476 613 -192 27 -587 25 -780 -5
-361 -55 -664 -150 -964 -303 -136 -69 -150 -72 -151 -27 0 44 -100 364 -155
499 -156 383 -365 718 -637 1022 -43 48 -78 89 -78 92 0 3 861 7 1913 9 1051
1 2027 3 2168 5 227 2 258 0 263 -14z m-9325 -21 c-246 -270 -405 -493 -559
-786 l-47 -88 -5 443 c-4 244 -4 446 -1 451 2 4 147 7 320 7 l317 0 -25 -27z
m7726 -1663 c466 -61 916 -256 1294 -560 117 -95 323 -305 413 -420 195 -253
348 -543 438 -835 143 -459 157 -947 40 -1416 -269 -1074 -1206 -1875 -2305
-1969 -965 -82 -1878 358 -2417 1165 -144 216 -281 517 -338 742 l-14 53 110
112 c137 141 206 222 314 368 310 417 519 888 616 1385 48 250 56 333 59 655
l2 315 74 48 c222 143 547 270 849 330 289 58 559 67 865 27z m-8265 -2335 c0
-10 175 -292 223 -358 132 -184 277 -353 410 -480 96 -92 260 -233 325 -281
29 -21 52 -42 50 -46 -2 -4 -61 -54 -133 -111 -159 -126 -381 -346 -499 -494
-153 -193 -303 -427 -397 -622 -23 -46 -43 -83 -45 -83 -2 0 -4 586 -4 1303
l0 1302 35 -63 c19 -34 35 -64 35 -67z m3190 -1006 c1197 -108 2207 -986 2491
-2166 56 -236 73 -382 73 -658 0 -276 -17 -422 -73 -658 -176 -730 -626 -1352
-1268 -1754 -246 -154 -556 -285 -828 -348 -421 -98 -883 -101 -1290 -8 -799
181 -1494 712 -1878 1433 -158 297 -254 592 -309 949 -30 195 -30 577 0 772
55 357 150 650 309 949 314 593 866 1080 1493 1317 228 87 498 151 725 172
132 12 423 12 555 0z m1878 -272 c17 -50 32 -96 32 -100 0 -4 -36 22 -80 59
-44 36 -80 67 -80 69 0 5 83 65 89 65 4 0 21 -42 39 -93z m975 -1351 c445
-356 1015 -584 1587 -636 146 -13 411 -13 560 0 566 49 1118 268 1572 623 53
41 99 73 102 69 3 -3 6 -747 6 -1654 l0 -1648 -2196 0 -2196 0 21 28 c465 612
695 1282 695 2017 -1 410 -79 833 -218 1178 -20 48 -36 90 -36 93 0 11 17 -1
103 -70z m-6064 -2639 c80 -167 192 -349 317 -518 35 -48 64 -89 64 -93 0 -3
-96 -5 -212 -4 l-213 3 -3 348 c-1 191 0 347 2 347 2 0 22 -37 45 -83z"/>
<path d="M2955 10721 c-138 -34 -212 -183 -156 -313 31 -72 162 -181 292 -243
261 -123 575 -109 824 38 96 57 191 141 216 193 64 133 -13 292 -156 324 -81
18 -145 -2 -224 -72 -113 -99 -276 -134 -411 -88 -67 23 -91 37 -177 106 -34
28 -68 46 -103 53 -56 12 -62 12 -105 2z"/>
<path d="M4795 10721 c-107 -26 -175 -113 -175 -223 1 -70 26 -122 91 -185
191 -183 491 -270 755 -217 212 41 447 186 505 309 36 78 19 187 -39 248 -89
94 -218 97 -328 9 -113 -91 -189 -122 -299 -122 -110 0 -186 31 -299 122 -73
58 -138 77 -211 59z"/>
<path d="M3835 9330 c-82 -37 -135 -119 -135 -210 0 -91 49 -166 135 -206 l50
-24 612 0 c545 0 617 2 655 16 193 75 199 344 10 425 -41 18 -80 19 -665 18
-579 0 -625 -2 -662 -19z"/>
<path d="M7931 8605 c-84 -27 -131 -95 -131 -191 0 -43 6 -68 25 -100 49 -84
207 -186 365 -235 63 -20 96 -24 210 -24 119 1 145 4 220 28 47 15 119 46 160
69 94 52 204 159 213 207 25 126 -34 225 -150 252 -68 16 -114 0 -202 -66 -76
-58 -171 -95 -240 -95 -86 1 -184 39 -253 99 -24 21 -52 43 -63 48 -36 19
-108 23 -154 8z"/>
<path d="M9550 8609 c-107 -32 -170 -159 -130 -263 36 -96 212 -218 387 -268
112 -33 306 -32 413 1 110 34 220 95 293 162 76 69 97 108 97 178 0 97 -59
170 -156 192 -68 15 -120 0 -190 -57 -85 -69 -154 -97 -244 -98 -97 -1 -174
25 -243 82 -28 24 -63 49 -77 57 -36 19 -109 26 -150 14z"/>
<path d="M9250 7535 c-220 -35 -433 -157 -502 -289 -16 -31 -19 -53 -16 -98 8
-109 88 -183 198 -182 63 0 96 15 169 77 65 55 136 83 249 98 154 20 320 -13
408 -81 92 -70 115 -83 163 -88 122 -11 221 77 221 198 0 68 -26 116 -96 179
-180 160 -492 233 -794 186z"/>
<path d="M2846 5160 c-56 -28 -85 -58 -107 -108 -24 -55 -24 -126 0 -177 53
-114 270 -250 465 -292 102 -22 316 -13 411 17 236 75 415 232 415 366 0 52
-41 135 -83 167 -96 72 -200 62 -312 -32 -162 -135 -361 -133 -533 7 -30 24
-69 50 -88 58 -47 20 -122 17 -168 -6z"/>
<path d="M4595 5161 c-135 -62 -169 -240 -68 -347 88 -92 222 -171 363 -216
66 -20 95 -23 235 -23 138 0 169 4 230 23 170 55 352 177 394 266 56 114 5
252 -111 300 -81 34 -157 16 -251 -59 -92 -74 -160 -99 -267 -99 -103 0 -175
25 -251 87 -106 87 -188 108 -274 68z"/>
<path d="M3913 4009 c-89 -16 -153 -75 -173 -161 -23 -95 11 -174 112 -257
167 -136 379 -203 648 -203 149 0 276 17 362 51 89 34 120 49 178 83 89 51
174 129 199 181 26 54 28 144 4 194 -23 50 -76 98 -122 111 -87 27 -162 9
-234 -56 -83 -75 -159 -107 -294 -124 -165 -21 -335 13 -440 87 -27 19 -64 45
-83 59 -44 31 -103 44 -157 35z"/>
</g>
</svg>
